<svg version="1.2" xmlns="http://www.w3.org/2000/svg" viewBox="0 0 512 512" width="512" height="512"><style>.a{fill:#fff}</style><path fill-rule="evenodd" class="a" d="m75 437c-48-48-75-113.1-75-181 0-67.9 27-133 75-181 48-48 113.1-75 181-75 67.9 0 133 27 181 75 48 48 75 113.1 75 181 0 67.9-27 133-75 181-48 48-113.1 75-181 75-67.9 0-133-27-181-75zm157-285v112c0 13.3 10.7 24 24 24 13.3 0 24-10.7 24-24v-112c0-13.3-10.7-24-24-24-13.3 0-24 10.7-24 24zm1.4 222.6c6 6 14.1 9.4 22.6 9.4 8.5 0 16.6-3.4 22.6-9.4 6-6 9.4-14.1 9.4-22.6 0-8.5-3.4-16.6-9.4-22.6-6-6-14.1-9.4-22.6-9.4-8.5 0-16.6 3.4-22.6 9.4-6 6-9.4 14.1-9.4 22.6 0 8.5 3.4 16.6 9.4 22.6z"/></svg>