<svg version="1.2" xmlns="http://www.w3.org/2000/svg" viewBox="0 0 512 512" width="512" height="512"><style>.a{fill:#fff}</style><path fill-rule="evenodd" class="a" d="m75 437c-48-48-75-113.1-75-181 0-67.9 27-133 75-181 48-48 113.1-75 181-75 67.9 0 133 27 181 75 48 48 75 113.1 75 181 0 67.9-27 133-75 181-48 48-113.1 75-181 75-67.9 0-133-27-181-75zm293.9-228.1c9.4-9.3 9.3-24.5 0-33.9-9.3-9.4-24.5-9.4-33.9 0l-111 111.1-47-47c-9.3-9.4-24.5-9.3-33.9 0-9.4 9.3-9.4 24.5 0 33.9l64 64c9.3 9.4 24.5 9.4 33.9 0l128-128z"/></svg>