<svg version="1.2" xmlns="http://www.w3.org/2000/svg" viewBox="0 0 512 512" width="512" height="512"><style>.a{fill:#626262}</style><path fill-rule="evenodd" class="a" d="m21.2 431.9q2.7-4 5.1-8.1c10-16.6 19.5-38.4 21.4-62.9-30-34.1-47.7-75.8-47.7-120.9 0-114.9 114.6-208 256-208 141.4 0 256 93.1 256 208 0 114.9-114.6 208-256 208-37.1 0-72.3-6.4-104.1-17.9-11.9 8.7-31.3 20.6-54.3 30.6-15.1 6.6-32.3 12.6-50.1 16.1-0.8 0.2-1.6 0.3-2.4 0.5-4.4 0.8-8.7 1.5-13.2 1.9-0.2 0-0.5 0.1-0.7 0.1-5.1 0.5-10.2 0.8-15.3 0.8-6.5 0-12.3-3.9-14.8-9.9-2.5-6-1.1-12.8 3.4-17.4 4.1-4.2 7.8-8.7 11.3-13.5q2.6-3.4 4.8-6.9c0.1-0.2 0.2-0.3 0.3-0.5zm102.4-40.6c12.9-9.4 29.6-11.8 44.6-6.4 26.5 9.6 56.2 15.1 87.8 15.1 124.7 0 208-80.5 208-160 0-79.5-83.3-160-208-160-124.7 0-208 80.5-208 160 0 32 12.4 62.8 35.7 89.2 8.6 9.7 12.8 22.5 11.8 35.5-1.4 18.1-5.7 34.7-11.3 49.4 17-7.9 31.1-16.7 39.4-22.7z"/></svg>